<svg xmlns="http://www.w3.org/2000/svg" viewBox="0 0 858.4 524"><defs><style>.p0{fill:#33240f;opacity:.3}.p1{fill:#3a2b17;opacity:.58}.p2{fill:#f8eed2;opacity:.48}.p3{fill:#3c2a14;opacity:.7}.p4{fill:none;stroke:#5c4327;stroke-opacity:.34;stroke-width:2;stroke-linecap:round}.p5{fill:#2c1e0b;opacity:.2}.p6{fill:#2c1e0b;opacity:.38}.p7{fill:#332512;opacity:.68}.p8{fill:#f8eed2;opacity:.46}.p9{fill:#33220e;opacity:.82}.p10{fill:none;stroke:#5c4327;stroke-opacity:.46;stroke-width:1;stroke-linecap:round}.p11{fill:none;stroke:#5c4327;stroke-opacity:.34;stroke-width:1.6;stroke-linecap:round}.p12{fill:none;stroke:#fff8e6;stroke-width:1.6;stroke-linecap:round}.p13{fill:none;stroke:#eaddc0;stroke-width:1.6;stroke-linecap:round}.p14{fill:none;stroke:#f6ead0;stroke-width:1.15;stroke-linecap:round}.p15{fill:none;stroke:#ecd8b0;stroke-width:1.1;stroke-linecap:round}.p16{fill:none;stroke:#ecd8b0;stroke-width:.8;stroke-linecap:round}</style><linearGradient id="s0"><stop stop-color="#f7efd9"/><stop offset=".12" stop-color="#e6d5ad"/><stop offset=".26" stop-color="#cbb083"/><stop offset=".4" stop-color="#a78a5f"/><stop offset=".52" stop-color="#dfcb9f"/><stop offset=".66" stop-color="#977a52"/><stop offset=".82" stop-color="#6b5238"/><stop offset="1" stop-color="#3d2e1e"/></linearGradient><linearGradient id="s1"><stop stop-color="#5b4229"/><stop offset=".24" stop-color="#a98e66"/><stop offset=".46" stop-color="#f4e8c6"/><stop offset=".66" stop-color="#bda278"/><stop offset="1" stop-color="#675034"/></linearGradient><linearGradient id="r-top" href="#s0" x1="0" y1="0" x2="0.7" y2="1"/><linearGradient id="r-top-fold" href="#s1" x1="0" y1="0" x2="1" y2="0.4"/><linearGradient id="r-bottom" href="#s0" x1="0" y1="1" x2="0.7" y2="0"/><linearGradient id="r-bottom-fold" href="#s1" x1="0" y1="1" x2="1" y2="0.6"/><linearGradient id="r-left" href="#s0" x1="0" y1="0" x2="0.7" y2="1"/><linearGradient id="r-left-fold" href="#s1" x1="0" y1="0" x2="1" y2="0.4"/><linearGradient id="r-right" href="#s0" x1="0" y1="1" x2="0.7" y2="0"/><linearGradient id="r-right-fold" href="#s1" x1="0" y1="1" x2="1" y2="0.6"/><linearGradient id="c-tl-gilt" href="#s0" x1="0" y1="0" x2="0.82" y2="1"/><linearGradient id="c-tl-fold" href="#s1" x1="0" y1="0" x2="1" y2="0.35"/><linearGradient id="c-tr-gilt" href="#s0" x1="1" y1="0" x2="0.18" y2="1"/><linearGradient id="c-tr-fold" href="#s1" x1="1" y1="0" x2="0" y2="0.35"/><linearGradient id="c-bl-gilt" href="#s0" x1="0" y1="1" x2="0.82" y2="0"/><linearGradient id="c-bl-fold" href="#s1" x1="0" y1="1" x2="1" y2="0.65"/><linearGradient id="c-br-gilt" href="#s0" x1="1" y1="1" x2="0.18" y2="0"/><linearGradient id="c-br-fold" href="#s1" x1="1" y1="1" x2="0" y2="0.65"/><g id="c-body"><path d="M61.9 13.3L61.5 13.1L61.2 12.6L61.2 12.1L61.5 11.5L62 11.1L62.7 11L63.4 11.2L64.1 11.7L64.4 12.5L64.4 13.4L63.9 14.3L63.1 14.9L62 15.1L60.7 14.7L59.7 13.7L57.7 12.1L55.1 10.3L52.3 8.6L49.4 7L46.5 5.7L43.5 4.5L40.4 3.4L37.2 2.5L34 1.9L30.9 1.8L27.8 1.9L24.7 2.3L21.6 3L18.5 4L15.7 5.6L13.1 7.5L10.6 9.7L8.4 12.1L6.4 14.9L5 18L4.1 21.2L3.6 24.3L3.3 27.3L3.1 30.3L3.4 33.4L3.8 36.5L4.3 39.7L5.1 42.8L6.1 45.9L7.3 49L8.8 52.1L10.4 55L11.8 57.3L12.8 58.5L13 59.9L12.7 61.1L11.9 61.9L10.9 62.3L9.9 62.2L9 61.8L8.6 61L8.4 60.2L8.7 59.5L9.2 59L9.8 58.8L10.4 58.8L10.8 59.1L11 59.6L11.7 59.5L11.7 58.7L11 57.8L9.9 57.2L8.5 57.3L7.1 58.1L6.1 59.6L6 61.6L6.8 63.6L8.6 65.2L11 65.8L13.7 65.2L16 63.4L17.3 60.6L17.2 57.5L16.7 55.2L15.9 52.6L15 49.7L14.3 46.7L13.9 44.1L14 41.7L14.2 39.1L14.6 36.5L15.2 34L15.9 31.7L16.4 29.5L17.1 27.4L17.9 25.6L18.7 24.2L19.6 23.1L20.4 22L21.5 20.8L22.8 19.7L24.1 18.8L25.5 18L26.8 17.2L28.3 16.5L30 15.9L31.9 15.4L34 15.1L36.2 14.7L38.7 14.5L41.4 14.6L44.1 14.7L46.6 15L49.2 15.6L51.9 16.5L54.7 17.6L57.1 18.5L59.3 19.3L62.3 19.6L65.2 18.5L67.2 16.5L68 13.9L67.6 11.4L66.2 9.6L64.3 8.6L62.4 8.6L60.8 9.4L59.9 10.7L59.7 12.1L60.1 13.2L60.9 13.9L61.7 14Z"/><path d="M23.7 20L24.3 21.6L25.1 24L24.1 25.1L21.7 24.3L20.1 23.6L19.4 25.2L18.3 27.5L16.7 27.5L15.7 25.3L15 23.7L13.4 24.3L11 25.1L9.9 24.1L10.7 21.7L11.4 20.1L9.8 19.4L7.5 18.3L7.5 16.7L9.7 15.7L11.3 15L10.7 13.4L9.9 11L10.9 9.9L13.3 10.7L14.9 11.4L15.6 9.8L16.7 7.5L18.3 7.5L19.3 9.7L20 11.3L21.6 10.7L24 9.9L25.1 10.9L24.3 13.3L23.6 14.9L25.2 15.6L27.5 16.7L27.5 18.3L25.3 19.3Z"/><path d="M56.8 16.2L59 17L62.3 18.1L66.2 19L70.1 19.6L73.7 19.1L77.1 18.1L80.4 17.1L83.6 16.1L86.8 15.1L90 14.1L93.1 13.2L96.1 12.6L99.3 12.3L102.5 12.3L105.7 12.5L108.8 12.9L112.1 13.6L115.6 14.6L118.7 15.6L120.9 16.2L121.1 15.8L119 14.8L116 13.5L112.6 12.2L109.2 11.1L106 10.4L102.7 9.8L99.3 9.5L95.9 9.4L92.4 9.8L89 10.4L85.7 11.2L82.4 11.9L79.1 12.7L75.9 13.5L72.8 14.1L69.9 14.4L66.7 14.6L63 14.3L59.7 14L57.2 13.8Z"/><path d="M13.8 57.2L14 59.8L14.4 63.4L14.6 67.4L14.5 70.9L14.2 74.1L13.6 77.4L12.7 80.9L12 84.5L11.3 88L10.5 91.6L9.8 95.2L9.5 98.9L9.5 102.5L9.9 106.1L10.4 109.6L11.1 113.2L12 116.8L13.2 120.3L14.4 123.8L15.5 127.1L16.5 130.5L17.4 134L18.2 137L18.8 139L19.2 139L18.8 136.8L18.1 133.8L17.3 130.3L16.5 126.9L15.6 123.5L14.5 119.9L13.6 116.3L12.9 112.8L12.5 109.4L12.3 105.9L12.2 102.5L12.5 99.1L13.1 95.8L14 92.4L15 89L16 85.5L17 82.1L18 78.6L19 74.9L19.5 71.1L19 66.9L18 62.8L17 59.2L16.2 56.8Z"/><path d="M25 25L26.1 24.7L27.8 24.8L29.7 25.2L31.5 25.8L33 26.5L34.1 27.4L35.1 28.5L35.9 29.7L36.4 30.9L36.5 32L36.1 33.1L35.1 34.3L33.9 35.4L32.7 36.2L31.5 36.5L30.4 36.3L29.1 35.7L27.9 34.8L26.8 33.7L26 32.5L25.4 31.1L24.8 29.3L24.5 27.5L24.6 26Z"/><path d="M30 8L34.7 8.6L35.7 6.8L36.2 5.1L36.3 3.9L37.9 2.7L40.8 1.8L43.9 1.1L46 .5L46 .5L43.9-.2L40.8-1.1L37.3-1.9L33.7-1.9L30.3-.2L27.9 2.2L26.8 4.5L30 8Z"/><path d="M42 10L45.6 11.1L47.5 9.4L49.2 7.6L50.5 6.3L52.4 5.7L55.2 5.7L58 5.9L60 6L60 6L58.3 5L55.8 3.6L52.8 2.3L49.5 1.7L46.1 2.6L43.2 4.3L41.2 6.3L42 10Z"/><path d="M20 10L23.3 8.6L23.3 6.7L23.1 5L22.9 3.9L23.6 2.5L25.5 .7L27.6-.8L29-2L29-2L27.2-1.7L24.6-1.2L21.7-.4L19.1 1.1L17.4 3.6L16.7 6.4L16.7 8.6L20 10Z"/><path d="M8 30L4.6 26.9L2.3 28L-.1 30.3L-1.8 33.7L-1.8 37.3L-1.1 40.8L-.2 43.9L.5 46L.5 46L1.1 43.9L1.7 40.8L2.6 37.9L3.8 36.3L5.1 36.1L6.8 35.6L8.6 34.6L8 30Z"/><path d="M10 42L6.4 41.2L4.4 43.3L2.7 46.2L1.8 49.5L2.3 52.8L3.6 55.8L5 58.3L6 60L6 60L5.9 58L5.6 55.2L5.6 52.4L6.2 50.5L7.5 49.2L9.3 47.5L11.1 45.6L10 42Z"/><path d="M10 20L8.6 16.8L6.4 16.8L3.7 17.5L1.1 19.2L-.3 21.8L-1.2 24.6L-1.7 27.2L-2 29L-2 29L-.8 27.6L.7 25.5L2.4 23.6L3.9 22.8L5 23L6.7 23.2L8.6 23.2L10 20Z"/><path d="M78 13L80.9 13.3L82.5 11.6L84.1 9.8L85.4 8.6L87.4 8.1L90.3 8.1L93.1 8.4L95 8.5L95 8.5L93.2 7.7L90.6 6.6L87.6 5.7L84.6 5.4L81.7 6.4L79.2 8.2L77.5 10.2L78 13Z"/><path d="M13 78L10.2 77.6L8.3 79.3L6.5 81.7L5.5 84.6L5.7 87.6L6.7 90.6L7.7 93.2L8.5 95L8.5 95L8.4 93.1L8.1 90.3L8 87.4L8.5 85.4L9.7 84L11.5 82.5L13.3 80.8L13 78Z"/><path d="M106.9 11.2L105.8 11.4L106.2 12.8L106.1 14.8L104.8 14.9L103.7 13.2L103.2 12.2L102 12.9L100.1 13.5L99.6 12.3L100.9 10.7L101.7 9.9L100.6 9L99.5 7.4L100.4 6.5L102.4 7.3L103.3 7.8L103.9 6.5L105.1 4.9L106.2 5.5L106.1 7.6L105.9 8.7L107.3 8.8L109.2 9.5L108.9 10.7Z"/><path d="M12.1 103.8L14 104L15.1 105L13.9 106L12.1 106.2L11.8 106.7L12.2 108.5L11.6 109.9L10.2 109.1L9.5 107.4L9 107.2L7.4 108.1L5.9 108L6.2 106.5L7.6 105.3L7.6 104.7L6.2 103.5L5.9 102L7.4 101.9L9 102.8L9.5 102.6L10.3 100.9L11.6 100.2L12.2 101.6L11.8 103.4Z"/></g><g id="c-folds"><path d="M23 17.5L19.2 22.7L13.1 20.7L13.1 14.3L19.2 12.3Z"/><path d="M61.2 15.6L60.1 15.1L58.9 13.8L58.6 12.1L59 10.2L60.4 8.8L62.3 8.1L64.4 8.3L66.3 9.5L67.5 11.5L67.7 13.9L66.7 16.2L64.8 17.9L62.2 18.7L59.6 18.2L57.8 17.1L55.7 15.8L53.1 14.2L50.4 12.7L47.8 11.6L45.2 10.6L42.4 9.7L39.5 9L36.7 8.5L34 8.2L31.4 8.2L28.8 8.4L26.3 8.8L23.9 9.4L21.7 10.3L19.5 11.5L17.4 13L15.5 14.7L13.8 16.6L12.4 18.6L11.3 20.8L10.5 23.2L9.9 25.8L9.5 28.4L9.3 31L9.2 33.7L9.3 36.5L9.6 39.4L10 42.2L10.7 44.9L11.6 47.6L12.8 50.5L14.1 53.4L15.3 55.8L16.3 57.7L16.5 60.5L15.5 63.1L13.5 64.9L11 65.6L8.6 65.2L6.6 63.7L5.6 61.7L5.6 59.5L6.5 57.6L8.1 56.4L10 56.1L11.8 56.7L13 58L13.4 59.1L13.6 59.1L13.3 57.8L12 56.3L10.1 55.5L7.9 55.8L5.9 57.1L4.7 59.3L4.6 61.9L5.8 64.4L8.1 66.3L11.1 66.9L14.2 66.1L16.7 64L18.1 60.8L18 57.3L17.2 55L16.2 52.5L15.1 49.6L14.2 46.8L13.6 44.2L13.4 41.7L13.4 39.1L13.5 36.5L13.7 33.9L14.1 31.5L14.5 29.2L15.1 27L15.7 24.9L16.5 23.2L17.4 21.7L18.4 20.3L19.7 18.9L21.1 17.7L22.7 16.5L24.3 15.6L25.9 14.8L27.7 14.2L29.7 13.7L31.8 13.4L34 13.2L36.3 13.1L38.9 13.3L41.6 13.6L44.3 14L46.8 14.6L49.2 15.4L51.9 16.6L54.5 17.8L56.8 19L59 20L62.4 20.4L65.6 19.3L68 17L69 14.1L68.7 11.1L67.1 8.7L64.7 7.3L62.1 7.1L59.9 8.1L58.4 9.9L58 12.1L58.5 14.1L59.9 15.5L61.1 15.9Z"/></g><g id="c-undercuts"><path d="M64 13.7L61.1 15.8L60 12.4L63.6 12.4Z"/><path d="M13.7 59.6L10.7 61.7L9.5 58.2L13.2 58.2Z"/></g><g id="c-edges"><path d="M61.8 13.7L60.7 12.9L60.7 11.1L62.5 9.8L65.1 10.6L66.2 13.7L64.1 16.7L60 17L56.2 14.9L50.7 12.1L45.3 10.2L39.6 9L34 8.5L28.9 8.9L24.2 10.1L19.9 12.2L16.1 15.2L13 19L11 23.4L9.9 28.4L9.3 33.7L9.3 39.4L10 45L11.9 50.9L14.2 56.2L15.1 60.3L12.8 63.6L9.2 63.7L7.3 61.3L7.9 58.8L9.8 58L11.2 58.9"/><path d="M57 15L62.7 16.2L70 17L76.5 15.8L83 14L89.5 12.2L96 11L102.6 11.1L109 12L115.8 14.1L121 16"/><path d="M15 57L16.2 63.1L17 71L15.8 78L14 85L12.2 92L11 99L11.1 106L12 113L13.9 120.1L16 127L17.8 133.9L19 139"/><path d="M30 8L31.8 4.5L35 1L40.8 .3L46 .5"/><path d="M42 10L45.4 6.9L50 4L55.5 4.6L60 6"/><path d="M8 30L4.5 31.8L1 35L.3 40.8L.5 46"/><path d="M10 42L6.9 45.4L4 50L4.6 55.5L6 60"/></g><g id="c-cuts"><path d="M20 10L20 6.5L21 2.5L25.1-.2L29-2"/><path d="M10 20L6.5 20L2.5 21L-.2 25.1L-2 29"/><path d="M78 13L80.9 9.9L85 7L90.4 7.4L95 8.5"/><path d="M13 78L9.9 80.9L7 85L7.4 90.4L8.5 95"/></g><g id="r-mass"><path d="M80 24L75 28L68 33L62 37L56 39L50 41L44 42L38 41L32 39L27 37L23 37L19 38L17 41L15 44L15 47L17 50L19 52L21 53L23 53L25 52L27 50L27 48L27 47L26 45L25 45L24 45L24 46L25 46L25 47L25 48L25 49L24 49L23 50L22 49L21 49L20 48L20 46L20 45L21 44L22 43L23 43L25 43L29 45L36 48L44 50L51 50L59 49L66 47L75 44L82 39L88 36Z"/><path d="M101 32L107 35L115 39L123 41L131 41L138 38L142 37L144 37L145 37L146 38L147 39L147 40L146 42L145 43L144 43L143 42L142 42L142 41L142 40L143 39L143 38L142 38L141 39L141 40L140 41L140 43L141 44L143 45L145 46L147 45L149 44L151 42L151 39L150 36L148 33L145 32L142 31L137 32L130 33L125 33L119 30L112 25L107 22Z"/><path d="M76 30L75 21L68 17L59 14L50 14L40 16L34 18L41 19L49 20L57 22L62 26L68 31L76 30Z"/><path d="M112 28L120 28L125 23L131 20L138 19L147 19L154 20L148 17L139 14L129 12L120 15L113 20L112 28Z"/><path d="M58 46L51 45L46 50L41 53L34 55L26 55L20 55L26 57L34 58L43 59L50 57L57 53L58 46Z"/><path d="M90 4L92 4L94 5L96 6L99 8L101 10L102 12L103 14L104 17L104 20L104 23L104 27L104 30L103 33L103 37L102 40L100 44L99 47L98 50L97 53L96 56L95 58L94 60L92 62L91 62L90 61L88 60L86 57L85 54L83 51L82 48L81 44L81 40L80 36L80 32L80 27L80 24L80 21L80 19L80 16L81 14L81 13L82 11L83 9L84 8L85 6L87 5L88 4Z"/><path d="M91 58L93 59L95 60L96 61L98 63L99 65L99 67L99 69L98 71L97 72L96 74L95 75L94 76L92 77L91 78L90 78L89 77L88 76L87 75L86 74L85 72L85 70L84 68L84 66L85 65L85 63L86 62L87 60L88 59L90 58Z"/><path d="M27 40L23 38L18 36L12 35L6 35L0 37L-4 38L0 38L6 37L12 37L17 39L22 42L25 44Z"/><path d="M146 33L152 32L159 30L166 29L172 30L179 32L186 33L194 31L201 29L206 27L201 28L193 30L186 31L180 30L173 28L166 27L158 27L151 28L146 29Z"/></g><g id="r-folds"><path d="M84 29L79 33L71 38L64 42L57 44L51 46L44 46L37 45L30 43L26 41L23 41L21 42L20 43L19 45L19 47L19 48L20 49L22 50L23 49L24 49L24 48L24 47L23 47L24 48L23 48L22 48L21 48L21 47L21 46L21 45L21 44L22 43L24 43L25 43L29 45L36 48L44 50L51 50L58 48L66 46L74 42L81 37L87 34Z"/><path d="M104 27L109 30L117 34L124 37L131 36L137 35L142 33L145 33L147 34L149 36L150 39L150 41L149 44L147 45L145 46L143 46L141 45L140 43L139 41L140 39L141 38L142 37L143 37L142 37L140 38L139 39L139 41L139 43L140 45L142 47L145 47L148 46L150 44L151 42L152 39L151 35L148 33L145 31L142 31L137 32L130 33L125 33L118 31L111 26L106 23Z"/><path d="M100 26L90 33L86 21L98 21Z"/></g><g id="r-undercuts"><path d="M26 45L23 48L22 44L26 44Z"/><path d="M146 39L143 41L141 37L145 37Z"/></g><g id="r-crests"><path d="M84 30L71 38L57 44L44 46L31 42L23 40L19 42L17 47L20 50L23 51L26 49L26 47L25 45"/><path d="M104 27L117 34L131 37L142 34L147 35L149 39L148 43L145 44L142 43L141 41L142 39L143 39"/><path d="M76 29L72 25L65 21L58 17L50 16L41 17L35 17"/><path d="M112 27L116 23L123 18L130 15L138 15L147 17L153 19"/><path d="M89 8L91 14L93 23L94 32L93 41L92 50L91 56"/></g></defs><svg x="0" y="477" width="115" height="47" viewBox="-14 -6 230 94"><g><use href="#r-mass" transform="translate(3 4.2)" class="p0"/><use href="#r-mass" transform="translate(1.4 2)" class="p1"/><use href="#r-mass" transform="translate(-1 -1.3)" class="p2"/><use href="#r-mass" fill="url(#r-top)"/><use href="#r-undercuts" class="p3"/><use href="#r-folds" fill="url(#r-top-fold)" opacity=".85"/><use href="#r-crests" transform="translate(1.1 1.5)" class="p4"/></g></svg><svg x="117" y="477" width="115" height="47" viewBox="-14 -88 230 94"><g transform="scale(1 -1)"><use href="#r-mass" transform="translate(3 -4.2)" class="p0"/><use href="#r-mass" transform="translate(1.4 -2)" class="p1"/><use href="#r-mass" transform="translate(-1 1.3)" class="p2"/><use href="#r-mass" fill="url(#r-bottom)"/><use href="#r-undercuts" class="p3"/><use href="#r-folds" fill="url(#r-bottom-fold)" opacity=".85"/><use href="#r-crests" transform="translate(1.1 -1.5)" class="p4"/></g></svg><svg x="564.4" y="318" width="47" height="115" viewBox="-6 -14 94 230"><g><g transform="matrix(0 1 1 0 0 0)"><use href="#r-mass" transform="translate(3 4.2)" class="p0"/><use href="#r-mass" transform="translate(1.4 2)" class="p1"/><use href="#r-mass" transform="translate(-1 -1.3)" class="p2"/><use href="#r-mass" fill="url(#r-left)"/><use href="#r-undercuts" class="p3"/><use href="#r-folds" fill="url(#r-left-fold)" opacity=".85"/><use href="#r-crests" transform="translate(1.1 1.5)" class="p4"/></g></g></svg><svg x="613.4" y="318" width="47" height="115" viewBox="-88 -14 94 230"><g transform="scale(-1 1)"><g transform="matrix(0 1 1 0 0 0)"><use href="#r-mass" transform="translate(3 -4.2)" class="p0"/><use href="#r-mass" transform="translate(1.4 -2)" class="p1"/><use href="#r-mass" transform="translate(-1 1.3)" class="p2"/><use href="#r-mass" fill="url(#r-right)"/><use href="#r-undercuts" class="p3"/><use href="#r-folds" fill="url(#r-right-fold)" opacity=".85"/><use href="#r-crests" transform="translate(1.1 -1.5)" class="p4"/></g></g></svg><svg x="0" y="0" width="139.1" height="157" viewBox="-10 -10 139.1 157"><g><use href="#c-body" transform="translate(4.4 6.8)" class="p5"/><use href="#c-body" transform="translate(2.6 4.1)" class="p6"/><use href="#c-body" transform="translate(1.15 1.9)" class="p7"/><use href="#c-body" transform="translate(-0.75 -1)" class="p8"/><use href="#c-body" fill="url(#c-tl-gilt)"/><use href="#c-undercuts" class="p9"/><use href="#c-folds" fill="url(#c-tl-fold)" opacity=".88"/><use href="#c-cuts" transform="translate(0.5 0.7)" class="p10"/><use href="#c-edges" transform="translate(0.95 1.3)" class="p11"/></g></svg><svg x="141.1" y="0" width="139.1" height="157" viewBox="-129.1 -10 139.1 157"><g transform="scale(-1 1)"><use href="#c-body" transform="translate(-4.4 6.8)" class="p5"/><use href="#c-body" transform="translate(-2.6 4.1)" class="p6"/><use href="#c-body" transform="translate(-1.15 1.9)" class="p7"/><use href="#c-body" transform="translate(0.75 -1)" class="p8"/><use href="#c-body" fill="url(#c-tr-gilt)"/><use href="#c-undercuts" class="p9"/><use href="#c-folds" fill="url(#c-tr-fold)" opacity=".88"/><use href="#c-cuts" transform="translate(-0.5 0.7)" class="p10"/><use href="#c-edges" transform="translate(-0.95 1.3)" class="p11"/></g></svg><svg x="282.2" y="0" width="139.1" height="157" viewBox="-10 -147 139.1 157"><g transform="scale(1 -1)"><use href="#c-body" transform="translate(4.4 -6.8)" class="p5"/><use href="#c-body" transform="translate(2.6 -4.1)" class="p6"/><use href="#c-body" transform="translate(1.15 -1.9)" class="p7"/><use href="#c-body" transform="translate(-0.75 1)" class="p8"/><use href="#c-body" fill="url(#c-bl-gilt)"/><use href="#c-undercuts" class="p9"/><use href="#c-folds" fill="url(#c-bl-fold)" opacity=".88"/><use href="#c-cuts" transform="translate(0.5 -0.7)" class="p10"/><use href="#c-edges" transform="translate(0.95 -1.3)" class="p11"/></g></svg><svg x="423.3" y="0" width="139.1" height="157" viewBox="-129.1 -147 139.1 157"><g transform="scale(-1 -1)"><use href="#c-body" transform="translate(-4.4 -6.8)" class="p5"/><use href="#c-body" transform="translate(-2.6 -4.1)" class="p6"/><use href="#c-body" transform="translate(-1.15 -1.9)" class="p7"/><use href="#c-body" transform="translate(0.75 1)" class="p8"/><use href="#c-body" fill="url(#c-br-gilt)"/><use href="#c-undercuts" class="p9"/><use href="#c-folds" fill="url(#c-br-fold)" opacity=".88"/><use href="#c-cuts" transform="translate(-0.5 -0.7)" class="p10"/><use href="#c-edges" transform="translate(-0.95 -1.3)" class="p11"/></g></svg><svg x="234" y="477" width="115" height="47" viewBox="-14 -6 230 94"><g><use href="#r-crests" class="p12"/></g></svg><svg x="351" y="477" width="115" height="47" viewBox="-14 -88 230 94"><g transform="scale(1 -1)"><use href="#r-crests" class="p13"/></g></svg><svg x="662.4" y="318" width="47" height="115" viewBox="-6 -14 94 230"><g><g transform="matrix(0 1 1 0 0 0)"><use href="#r-crests" class="p12"/></g></g></svg><svg x="711.4" y="318" width="47" height="115" viewBox="-88 -14 94 230"><g transform="scale(-1 1)"><g transform="matrix(0 1 1 0 0 0)"><use href="#r-crests" class="p13"/></g></g></svg><svg x="564.4" y="0" width="139.1" height="157" viewBox="-10 -10 139.1 157"><g><use href="#c-edges" fill="none" stroke="#fff8e6" stroke-width="1.15" stroke-linecap="round"/></g></svg><svg x="705.5" y="0" width="139.1" height="157" viewBox="-129.1 -10 139.1 157"><g transform="scale(-1 1)"><use href="#c-edges" class="p14"/></g></svg><svg x="0" y="159" width="139.1" height="157" viewBox="-10 -147 139.1 157"><g transform="scale(1 -1)"><use href="#c-edges" class="p14"/></g></svg><svg x="141.1" y="159" width="139.1" height="157" viewBox="-129.1 -147 139.1 157"><g transform="scale(-1 -1)"><use href="#c-edges" fill="none" stroke="#e8dabb" stroke-width="1.15" stroke-linecap="round"/></g></svg><svg x="468" y="477" width="115" height="47" viewBox="-14 -6 230 94"><g><use href="#r-crests" transform="translate(1.8 2.4)" class="p15"/></g></svg><svg x="585" y="477" width="115" height="47" viewBox="-14 -88 230 94"><g transform="scale(1 -1)"><use href="#r-crests" transform="translate(1.8 -2.4)" class="p15"/></g></svg><svg x="760.4" y="318" width="47" height="115" viewBox="-6 -14 94 230"><g><g transform="matrix(0 1 1 0 0 0)"><use href="#r-crests" transform="translate(1.8 2.4)" class="p15"/></g></g></svg><svg x="809.4" y="318" width="47" height="115" viewBox="-88 -14 94 230"><g transform="scale(-1 1)"><g transform="matrix(0 1 1 0 0 0)"><use href="#r-crests" transform="translate(1.8 -2.4)" class="p15"/></g></g></svg><svg x="282.2" y="159" width="139.1" height="157" viewBox="-10 -10 139.1 157"><g><use href="#c-edges" transform="translate(1.5 2)" class="p16"/></g></svg><svg x="423.3" y="159" width="139.1" height="157" viewBox="-129.1 -10 139.1 157"><g transform="scale(-1 1)"><use href="#c-edges" transform="translate(-1.5 2)" class="p16"/></g></svg><svg x="564.4" y="159" width="139.1" height="157" viewBox="-10 -147 139.1 157"><g transform="scale(1 -1)"><use href="#c-edges" transform="translate(1.5 -2)" class="p16"/></g></svg><svg x="705.5" y="159" width="139.1" height="157" viewBox="-129.1 -147 139.1 157"><g transform="scale(-1 -1)"><use href="#c-edges" transform="translate(-1.5 -2)" class="p16"/></g></svg><svg x="0" y="318" width="139.1" height="157" viewBox="-10 -10 139.1 157"><g><path d="M13 5l2 1.6M4 14l1.6 1.3M34 3l-1.8 1.4M48 9l-1.4 1.2M9 48l1.2 1.5M26 30l-1.5 1.2" fill="none" stroke="#fbf4e2" stroke-width=".9" stroke-linecap="round"/></g></svg><svg x="141.1" y="318" width="139.1" height="157" viewBox="-129.1 -10 139.1 157"><g transform="scale(-1 1)"><path d="M13 5l2 1.6M4 14l1.6 1.3M34 3l-1.8 1.4M48 9l-1.4 1.2M9 48l1.2 1.5M26 30l-1.5 1.2" fill="none" stroke="#fbf4e2" stroke-width=".9" stroke-linecap="round"/></g></svg><svg x="282.2" y="318" width="139.1" height="157" viewBox="-10 -147 139.1 157"><g transform="scale(1 -1)"><path d="M13 5l2 1.6M4 14l1.6 1.3M34 3l-1.8 1.4M48 9l-1.4 1.2M9 48l1.2 1.5M26 30l-1.5 1.2" fill="none" stroke="#fbf4e2" stroke-width=".9" stroke-linecap="round"/></g></svg><svg x="423.3" y="318" width="139.1" height="157" viewBox="-129.1 -147 139.1 157"><g transform="scale(-1 -1)"><path d="M13 5l2 1.6M4 14l1.6 1.3M34 3l-1.8 1.4M48 9l-1.4 1.2M9 48l1.2 1.5M26 30l-1.5 1.2" fill="none" stroke="#fbf4e2" stroke-width=".9" stroke-linecap="round"/></g></svg></svg>
